<svg width="60" height="60" viewBox="0 0 60 60" fill="none" xmlns="http://www.w3.org/2000/svg">
<path d="M30 60C46.542 60 60 46.542 60 30C60 13.458 46.542 0 30 0C13.458 0 0 13.458 0 30C0 46.542 13.458 60 30 60ZM30 6C43.233 6 54 16.767 54 30C54 43.233 43.233 54 30 54C16.767 54 6 43.233 6 30C6 16.767 16.767 6 30 6ZM27.879 44.121C28.157 44.4006 28.4874 44.6224 28.8514 44.7738C29.2154 44.9252 29.6058 45.0031 30 45.0031C30.3942 45.0031 30.7846 44.9252 31.1486 44.7738C31.5126 44.6224 31.843 44.4006 32.121 44.121L41.121 35.121C41.6675 34.5552 41.9699 33.7974 41.963 33.0108C41.9562 32.2242 41.6407 31.4718 41.0845 30.9155C40.5282 30.3593 39.7758 30.0438 38.9892 30.037C38.2026 30.0301 37.4448 30.3325 36.879 30.879L33 34.758V18C33 17.2044 32.6839 16.4413 32.1213 15.8787C31.5587 15.3161 30.7956 15 30 15C29.2044 15 28.4413 15.3161 27.8787 15.8787C27.3161 16.4413 27 17.2044 27 18V34.758L23.121 30.879C22.8437 30.5984 22.5134 30.3756 22.1493 30.2235C21.7852 30.0714 21.3946 29.9931 21 29.9931C20.6054 29.9931 20.2148 30.0714 19.8507 30.2235C19.4866 30.3756 19.1563 30.5984 18.879 30.879C18.5994 31.157 18.3776 31.4874 18.2262 31.8514C18.0748 32.2154 17.9969 32.6058 17.9969 33C17.9969 33.3942 18.0748 33.7846 18.2262 34.1486C18.3776 34.5126 18.5994 34.843 18.879 35.121L27.879 44.121Z" fill="#6E1731"/>
</svg>
