<svg width="165" height="165" viewBox="0 0 165 165" fill="none" xmlns="http://www.w3.org/2000/svg">
<g filter="url(#filter0_dd)">
<circle cx="85" cy="85" r="55" fill="#FFF1CF"/>
<circle cx="85" cy="85" r="54" stroke="white" stroke-width="2"/>
</g>
<path d="M109.446 82.2686L78.2947 51.1183C77.5742 50.3972 76.6125 50 75.5869 50C74.5614 50 73.5996 50.3972 72.8792 51.1183L70.5851 53.4118C69.0924 54.9062 69.0924 57.3351 70.5851 58.8273L96.7433 84.9855L70.5561 111.173C69.8356 111.894 69.4378 112.855 69.4378 113.88C69.4378 114.906 69.8356 115.867 70.5561 116.589L72.8501 118.882C73.5712 119.603 74.5324 120 75.5579 120C76.5834 120 77.5452 119.603 78.2657 118.882L109.446 87.7029C110.168 86.9796 110.564 86.0139 110.562 84.9872C110.564 83.9566 110.168 82.9914 109.446 82.2686Z" fill="#6E1731"/>
<defs>
<filter id="filter0_dd" x="0" y="0" width="165" height="165" filterUnits="userSpaceOnUse" color-interpolation-filters="sRGB">
<feFlood flood-opacity="0" result="BackgroundImageFix"/>
<feColorMatrix in="SourceAlpha" type="matrix" values="0 0 0 0 0 0 0 0 0 0 0 0 0 0 0 0 0 0 127 0"/>
<feOffset dx="-10" dy="-10"/>
<feGaussianBlur stdDeviation="10"/>
<feColorMatrix type="matrix" values="0 0 0 0 1 0 0 0 0 1 0 0 0 0 1 0 0 0 1 0"/>
<feBlend mode="normal" in2="BackgroundImageFix" result="effect1_dropShadow"/>
<feColorMatrix in="SourceAlpha" type="matrix" values="0 0 0 0 0 0 0 0 0 0 0 0 0 0 0 0 0 0 127 0"/>
<feOffset dx="10" dy="10"/>
<feGaussianBlur stdDeviation="7.5"/>
<feColorMatrix type="matrix" values="0 0 0 0 0 0 0 0 0 0 0 0 0 0 0 0 0 0 0.25 0"/>
<feBlend mode="normal" in2="effect1_dropShadow" result="effect2_dropShadow"/>
<feBlend mode="normal" in="SourceGraphic" in2="effect2_dropShadow" result="shape"/>
</filter>
</defs>
</svg>
