<svg width="165" height="165" viewBox="0 0 165 165" fill="none" xmlns="http://www.w3.org/2000/svg">
<g filter="url(#filter0_dd)">
<circle cx="85" cy="85" r="55" fill="#FFF1CF"/>
<circle cx="85" cy="85" r="54" stroke="white" stroke-width="2"/>
</g>
<path d="M61.5544 87.7314L92.7053 118.882C93.4258 119.603 94.3875 120 95.4131 120C96.4386 120 97.4004 119.603 98.1208 118.882L100.415 116.588C101.908 115.094 101.908 112.665 100.415 111.173L74.2567 85.0145L100.444 58.8273C101.164 58.1063 101.562 57.1451 101.562 56.1201C101.562 55.094 101.164 54.1328 100.444 53.4112L98.1499 51.1183C97.4288 50.3972 96.4676 50 95.4421 50C94.4166 50 93.4548 50.3972 92.7343 51.1183L61.5544 82.2971C60.8322 83.0204 60.4355 83.9861 60.4378 85.0128C60.4355 86.0434 60.8322 87.0086 61.5544 87.7314Z" fill="#6E1731"/>
<defs>
<filter id="filter0_dd" x="0" y="0" width="165" height="165" filterUnits="userSpaceOnUse" color-interpolation-filters="sRGB">
<feFlood flood-opacity="0" result="BackgroundImageFix"/>
<feColorMatrix in="SourceAlpha" type="matrix" values="0 0 0 0 0 0 0 0 0 0 0 0 0 0 0 0 0 0 127 0"/>
<feOffset dx="-10" dy="-10"/>
<feGaussianBlur stdDeviation="10"/>
<feColorMatrix type="matrix" values="0 0 0 0 1 0 0 0 0 1 0 0 0 0 1 0 0 0 1 0"/>
<feBlend mode="normal" in2="BackgroundImageFix" result="effect1_dropShadow"/>
<feColorMatrix in="SourceAlpha" type="matrix" values="0 0 0 0 0 0 0 0 0 0 0 0 0 0 0 0 0 0 127 0"/>
<feOffset dx="10" dy="10"/>
<feGaussianBlur stdDeviation="7.5"/>
<feColorMatrix type="matrix" values="0 0 0 0 0 0 0 0 0 0 0 0 0 0 0 0 0 0 0.25 0"/>
<feBlend mode="normal" in2="effect1_dropShadow" result="effect2_dropShadow"/>
<feBlend mode="normal" in="SourceGraphic" in2="effect2_dropShadow" result="shape"/>
</filter>
</defs>
</svg>
