<svg width="600" height="600" viewBox="0 0 600 600" fill="none" xmlns="http://www.w3.org/2000/svg">
<path d="M30.2867 375.356C10.9121 302.835 21.1923 225.601 58.8659 160.646C96.5395 95.6901 158.521 48.3327 231.175 28.9912C303.829 9.64969 381.205 19.9083 446.281 57.5104C511.358 95.1125 558.805 156.978 578.184 229.498C597.564 302.018 587.289 379.252 549.62 444.21C511.951 509.168 449.973 556.53 377.32 575.876C304.667 595.223 227.291 584.97 162.212 547.372C97.1326 509.774 49.6815 447.912 30.2968 375.394" fill="#FFF2CD" fill-opacity="0.98"/>
<path d="M30.2867 375.356C10.9121 302.835 21.1923 225.601 58.8659 160.646C96.5395 95.6901 158.521 48.3327 231.175 28.9912C303.829 9.64969 381.205 19.9083 446.281 57.5104C511.358 95.1125 558.804 156.978 578.184 229.498C597.564 302.018 587.289 379.252 549.62 444.21C511.951 509.168 449.973 556.53 377.32 575.876C304.667 595.223 227.291 584.97 162.212 547.372C97.1326 509.774 49.6815 447.912 30.2968 375.394" stroke="#FFCB00" stroke-width="5.79"/>
<path d="M26.9392 295.043C26.9392 295.043 28.0941 294.574 30.2559 293.697C32.3486 292.647 35.2978 290.955 38.9652 288.435C42.6756 286.027 47.0088 282.597 52.9288 280.195C55.6752 279.023 58.9084 277.948 62.0604 276.873C65.2315 275.778 68.4886 274.656 71.6287 273.042C74.8261 271.538 77.5463 269.202 80.9035 266.521C84.1486 263.904 87.2673 261.175 91.0493 258.436C92.8078 256.98 94.9124 255.874 96.9549 254.641L98.5035 253.729C98.797 253.563 98.9473 253.453 99.3625 253.24L100.116 252.886C101.135 252.419 102.154 251.943 103.185 251.471C107.573 249.525 111.754 248.126 115.719 246.186C119.718 244.248 123.135 241.987 126.371 238.635C128.306 236.838 129.537 235.138 131.095 233.369C132.587 231.404 134.145 229.516 135.588 227.399C138.547 223.289 141.363 218.849 144.255 214.322L148.824 207.268L153.568 200.833C160.521 192.185 168.323 184.617 173.993 177.201C174.702 176.125 175.541 174.989 176.143 173.964L177.651 171.067C178.686 168.886 179.727 166.595 180.71 164.135C182.726 159.278 184.852 153.996 187.966 149.187C188.832 148.054 189.689 146.926 190.543 145.804L191.693 144.355L192.86 142.951C194.406 141.027 195.635 139.383 197.141 137.42C200.004 133.62 202.884 129.792 205.819 126.154C207.36 124.355 208.78 122.558 210.5 120.877C211.316 120.032 212.099 119.183 213.163 118.409L214.65 117.254L215.024 116.972L215.115 116.903C215.614 116.601 215.306 116.798 215.44 116.718L215.609 116.637L216.294 116.306C216.626 116.107 217.477 115.816 218.203 115.615C218.971 115.349 219.611 115.355 220.288 115.297C221.627 115.23 222.937 115.482 224.111 115.897C226.473 116.734 228.322 118.166 229.928 119.623C233.102 122.608 235.407 125.883 237.487 129.026C239.546 132.193 241.329 135.256 242.987 138.128C246.313 143.863 249.072 148.897 251.618 152.802C254.149 156.716 256.388 159.555 258.134 161.23C259.012 162.048 259.704 162.67 260.217 163.004C260.723 163.367 260.983 163.554 260.983 163.554C260.983 163.554 260.697 163.419 260.151 163.156C259.59 162.919 258.802 162.443 257.807 161.758C255.839 160.351 253.123 157.891 250.146 154.259C247.134 150.663 243.763 146.019 240.007 140.707C238.11 138.07 236.096 135.278 233.884 132.517C231.675 129.786 229.303 126.92 226.609 124.822C225.275 123.794 223.863 122.962 222.55 122.649C221.892 122.492 221.269 122.447 220.68 122.55C220.396 122.616 220.057 122.624 219.892 122.749C219.682 122.854 219.563 122.793 219.024 123.152C216.542 124.822 213.839 128.213 211.231 131.76C208.622 135.4 206.034 139.272 203.313 143.338C202.008 145.298 200.407 147.62 198.93 149.543L197.806 151.003L197.164 151.838L196.704 152.495L194.838 155.108C192.566 158.892 190.836 163.463 188.944 168.502C188.026 171.023 186.959 173.641 185.775 176.324L183.587 180.515C182.85 181.775 182.127 182.762 181.392 183.898C174.42 193.207 167.197 200.217 160.943 208.166L156.138 214.543L151.897 220.956C148.967 225.425 146.011 229.986 142.787 234.375C141.224 236.592 139.485 238.715 137.776 240.824C135.913 242.864 133.901 245.185 132.105 246.714L130.728 247.985L130.384 248.303L130.212 248.458L129.967 248.685L129.862 248.759L129.034 249.387C127.922 250.18 126.865 251.123 125.712 251.764C123.445 253.209 121.143 254.365 118.867 255.382C114.338 257.353 109.845 258.762 105.929 260.153C104.893 260.551 103.863 260.952 102.839 261.344L102.064 261.648L101.453 261.963L100.083 262.665C98.272 263.624 96.4323 264.396 94.7096 265.664C91.2569 267.809 87.7421 270.587 84.3419 272.881C82.5786 274.037 81.0777 275.112 79.1855 276.284C78.2597 276.792 77.3411 277.306 76.4343 277.807C75.5109 278.252 74.5779 278.633 73.6688 279.034C69.9918 280.496 66.4532 281.419 63.1532 282.133C59.827 282.862 56.9016 283.451 53.9691 284.308C48.4739 285.867 43.7756 288.54 39.829 290.427C35.9182 292.462 32.6063 293.573 30.3919 294.283C28.1418 294.778 26.9392 295.043 26.9392 295.043Z" fill="#FE673A"/>
<path d="M117.998 341.131C117.998 341.131 118.363 340.561 119.071 339.461C119.426 338.908 119.867 338.22 120.392 337.41C120.975 336.645 121.651 335.76 122.418 334.754C125.534 330.796 130.758 325.577 138.02 320.069C141.602 317.244 145.625 314.236 149.76 310.693C153.876 307.141 158.11 302.992 161.658 297.752C162.52 296.422 163.449 295.12 164.169 293.633C164.968 292.13 165.779 290.604 166.599 289.056C167.447 287.494 168.207 285.897 169.157 284.299C170.152 282.707 171.157 281.09 172.176 279.459C176.373 273.132 181.393 267.167 186.553 261.067C189.14 258.013 191.757 254.936 194.312 251.719C195.601 250.088 196.904 248.435 198.22 246.769C199.55 245.107 200.834 243.43 202.321 241.746C208.044 234.963 214.258 228.88 219.207 221.594L221.054 218.863L222.701 215.974C223.85 213.91 225.011 211.836 226.172 209.747C228.404 205.529 231.018 201.294 233.638 197.002C238.903 188.549 244.271 180.451 249.631 171.766C252.324 167.462 255.044 163.123 257.78 158.756C259.147 156.569 260.519 154.377 261.899 152.174C263.202 149.946 264.506 147.708 265.814 145.469C268.421 140.98 271.042 136.463 273.676 131.925C275.002 129.664 276.332 127.397 277.665 125.125L279.872 121.477C280.622 120.324 281.151 119.246 282.082 118.033C289.026 108.281 296.934 101.689 302.805 93.7145C303.616 92.7692 304.142 91.694 304.831 90.6934C305.478 89.6597 306.127 88.7282 306.798 87.4705C308.141 85.1017 309.459 82.6721 311.108 80.1347C311.938 78.8688 312.84 77.5835 313.979 76.2816C314.499 75.6348 315.271 74.9687 315.922 74.344C316.743 73.7332 317.537 73.0947 318.578 72.6248C320.619 71.5662 323.307 71.4501 325.453 72.1051C326.482 72.4341 327.376 72.9123 328.275 73.3932C329.015 73.9128 329.753 74.4574 330.475 75.0185C335.403 79.6206 338.061 84.7037 340.942 89.1981C343.855 94.0711 346.516 98.864 349.167 103.51C351.813 108.195 354.503 112.681 357.357 116.927C360.219 121.159 363.321 124.838 366.812 128.934C368.493 130.83 370.22 133.171 371.923 135.394C373.557 137.685 375.14 139.988 376.575 142.428C379.53 147.285 381.738 152.539 383.791 157.664C384.722 160.24 385.731 162.816 386.559 165.367L387.86 169.19L388.463 170.879L389.147 172.733C390.058 175.204 390.94 177.753 391.974 179.79L393.451 183.038C393.939 184.119 394.6 185.133 395.162 186.189C399.77 194.605 405.988 201.574 412.611 208.177C414.294 209.816 415.96 211.447 417.623 213.069L418.253 213.675L418.76 214.178L419.057 214.504L420.25 215.808C421.039 216.66 421.833 217.492 422.666 218.702C426.088 223.155 428.107 227.506 430.405 231.295C432.642 235.088 435.051 237.882 438.086 239.574C439.02 240.063 439.975 240.624 440.872 241.053L443.386 241.943C444.17 242.28 445.133 242.52 446.086 242.769L448.918 243.526C456.564 245.362 465.027 246.636 472.056 251.998C473.592 253.203 475.109 254.403 476.611 255.589C478.108 256.882 479.59 258.154 481.06 259.42C483.873 262.001 486.602 264.522 489.157 267.101C494.234 272.228 499.051 277.088 503.581 281.657C512.641 290.659 520.998 297.879 528.579 302.553C530.497 303.642 532.293 304.756 534.04 305.654C535.809 306.503 537.467 307.296 539.013 308.034C542.208 309.173 544.913 310.292 547.211 310.715C549.477 311.265 551.241 311.738 552.427 311.826C553.571 311.705 554.157 311.24 554.157 311.309C554.135 311.243 553.643 311.743 552.432 311.981C551.197 311.998 549.438 311.677 547.113 311.315C544.759 311.083 541.968 310.201 538.638 309.311C537.017 308.692 535.277 308.023 533.42 307.313C531.592 306.508 529.708 305.491 527.687 304.504C519.707 300.223 510.799 293.387 501.202 284.882C496.459 280.612 491.404 276.068 486.08 271.278C483.417 268.911 480.678 266.54 477.85 264.163C476.437 263.041 475.003 261.902 473.548 260.752C472.012 259.646 470.456 258.521 468.888 257.388C463.221 253.4 455.731 252.418 447.671 250.931C446.642 250.707 445.608 250.481 444.569 250.257C443.53 250.03 442.496 249.806 441.347 249.386C440.225 248.999 439.093 248.609 437.961 248.228C436.959 247.783 436.055 247.285 435.09 246.813L434.377 246.454L434.022 246.279L433.84 246.188C433.671 246.086 433.973 246.285 433.412 245.942L431.861 244.767C430.824 243.974 429.763 243.192 428.945 242.18C427.093 240.303 425.669 238.192 424.3 236.124C423.075 234.106 421.842 232.078 420.598 230.035L418.785 227.23C418.18 226.257 417.577 225.626 416.989 224.797C416.492 224.026 415.651 223.175 414.818 222.334L413.593 221.071L413.287 220.753C413.194 220.657 413.561 221.027 413.326 220.8L413.167 220.648L412.513 220.054C410.766 218.454 409.016 216.842 407.252 215.222C400.223 208.699 393.172 200.974 387.76 191.543C387.098 190.357 386.361 189.243 385.756 187.983L383.953 184.193C382.647 181.612 381.782 179.199 380.831 176.747L380.118 174.906L379.359 172.883L378.043 169.195C377.183 166.702 376.215 164.35 375.299 161.923C371.499 152.362 366.528 144.106 359.854 136.463C356.522 132.613 352.808 128.254 349.657 123.635C346.516 119.028 343.64 114.268 340.922 109.536C338.188 104.779 335.535 100.088 332.867 95.666C329.985 91.061 327.214 86.5031 324.387 83.9436C324.069 83.728 323.762 83.4958 323.466 83.2443C323.231 83.1669 322.998 83.0094 322.839 82.9458C322.574 82.9541 322.66 82.849 322.412 82.9706C321.864 83.0867 320.303 84.8336 319.058 86.7767C317.745 88.753 316.442 91.1025 315.099 93.4492C314.484 94.5963 313.622 95.8898 312.828 97.1364C312 98.3499 311.26 99.7153 310.346 100.788C306.879 105.473 303.099 109.34 299.514 113.187C295.984 116.924 292.505 120.794 289.878 124.418C289.168 125.261 288.467 126.604 287.761 127.665L286.708 129.363L286.446 129.785L286.313 129.993C286.554 129.573 286.304 130.001 286.326 129.968L285.811 130.83C284.434 133.141 283.057 135.446 281.688 137.746C278.924 142.323 276.178 146.884 273.443 151.411C272.074 153.672 270.704 155.92 269.344 158.167C267.933 160.337 266.527 162.501 265.123 164.66C262.318 168.977 259.535 173.259 256.776 177.51C251.307 185.995 245.618 194.448 240.297 202.392C237.714 206.366 235.135 210.272 232.746 214.498C231.521 216.566 230.296 218.619 229.085 220.659L227.13 223.86L224.996 226.837C219.263 234.704 212.687 240.842 207.094 246.97C205.678 248.435 204.288 250.108 202.907 251.7C201.532 253.311 200.165 254.906 198.813 256.484C196.061 259.674 193.285 262.687 190.603 265.608C185.212 271.438 180.217 277.06 175.939 282.782C174.925 284.227 173.923 285.653 172.938 287.058C171.958 288.503 171.083 290.112 170.172 291.599C169.26 293.116 168.359 294.614 167.472 296.088C166.602 297.655 165.529 299.015 164.524 300.383C160.411 305.798 155.751 309.836 151.363 313.203C146.955 316.561 142.778 319.311 139.078 321.893C135.359 324.441 132.137 326.843 129.391 329.041C126.681 331.28 124.471 333.358 122.807 335.174C121.987 336.1 121.257 336.918 120.627 337.62C120.054 338.392 119.571 339.036 119.179 339.555C118.4 340.597 117.998 341.131 117.998 341.131Z" fill="#FE673A"/>
<path d="M389.546 173.044C389.546 173.044 389.636 172.76 389.818 172.215C389.989 171.665 390.242 170.864 390.739 169.852C391.675 167.834 393.446 164.971 396.43 162.259C399.346 159.47 403.31 156.756 407.392 153.464C408.396 152.626 409.406 151.739 410.352 150.766L411.06 150.031L411.236 149.84C411.109 149.967 411.302 149.754 411.324 149.721L411.677 149.282C412.152 148.69 412.635 148.096 413.127 147.491C414.703 145.199 416.178 142.623 417.452 139.483C418.723 136.363 419.943 132.85 421.514 129.19C421.938 128.256 422.278 127.402 422.79 126.379C423.236 125.519 423.685 124.651 424.133 123.778C425.221 121.879 426.24 120.041 427.762 118.197C428.09 117.736 428.541 117.28 428.989 116.829C429.413 116.373 429.881 115.922 430.486 115.505C431.027 115.074 431.618 114.662 432.397 114.35C432.774 114.189 433.12 114.012 433.524 113.899C433.953 113.802 434.394 113.733 434.83 113.675C435.705 113.49 436.621 113.733 437.513 113.888C438.341 114.131 439.108 114.529 439.843 114.938C440.443 115.389 441.082 115.864 441.629 116.367L443.028 117.901C446.208 122.017 447.881 126.406 449.542 130.589C451.118 134.674 452.718 138.831 454.335 143.038C455.998 146.916 457.821 150.324 460.217 153.306C460.813 154.061 461.548 154.721 462.202 155.443C462.885 156.148 463.5 156.894 464.324 157.51L466.644 159.454L467.732 160.366L469.062 161.33C472.276 163.63 476.343 165.935 480.2 169.454C481.18 170.255 482.091 171.447 483.017 172.447L484.301 174.272L484.931 175.203C485.066 175.449 484.735 174.819 485.252 175.786L485.301 175.883L485.394 176.085L485.573 176.48L485.945 177.271C486.068 177.536 486.183 177.746 486.354 178.28C486.661 179.189 486.94 180.123 487.182 181.049C487.462 182.547 487.702 184.029 487.802 185.284C488.045 187.838 488.221 189.947 488.572 190.975C488.626 191.072 488.67 191.174 488.704 191.279L488.753 191.436L488.777 191.525C488.932 191.799 488.562 191.182 488.626 191.284L488.684 191.378L489.586 192.81C489.802 193.037 490 193.275 490.191 193.526C490.402 193.791 490.782 194.162 491.066 194.474C493.648 197.075 497.027 199.502 500.418 201.86C503.833 204.22 507.371 206.462 510.901 209.082C512.67 210.365 514.51 211.993 515.948 213.297C517.485 214.663 518.991 216.028 520.471 217.402C523.441 220.136 526.373 222.394 529.228 224.837C535.228 229.445 540.9 233.801 546.135 237.826C551.513 242.091 555.977 246.145 560.147 249.584C564.295 253.006 567.953 255.891 571.116 257.981C574.272 260.082 576.913 261.409 578.807 261.959C579.755 262.293 580.5 262.387 581.012 262.42C581.524 262.478 581.793 262.509 581.793 262.509C581.793 262.509 581.529 262.539 581.012 262.592C580.497 262.669 579.713 262.757 578.711 262.594C576.692 262.39 573.733 261.641 570.246 259.993C566.738 258.398 562.609 256.132 558.079 253.21C553.534 250.369 548.458 246.828 543.129 243.332C540.334 241.612 537.416 239.821 534.405 237.967C531.376 236.087 528.314 233.956 525.126 231.861C522.012 229.572 518.616 227.289 515.493 224.793C512.339 222.405 509.179 219.436 506.19 217.457C502.993 215.29 499.393 213.214 495.74 210.929C492.075 208.629 488.3 206.202 484.617 202.562C484.144 202.061 483.721 201.672 483.218 201.08C482.701 200.453 482.199 199.817 481.707 199.165L480.773 197.725L480.717 197.633C480.736 197.68 480.342 196.989 480.472 197.202L480.327 196.887L480.041 196.243L479.499 194.936C478.382 191.5 478.348 188.786 478.058 186.624C477.956 185.505 477.772 184.642 477.625 183.802C477.542 183.598 477.49 183.393 477.47 183.169C477.507 183.114 477.353 182.81 477.225 182.547L476.846 181.759L476.66 181.364L476.564 181.165L476.513 181.068C476.99 181.975 476.62 181.287 476.718 181.475L476.363 180.994L475.67 180.013C475.033 179.399 474.572 178.727 473.83 178.119C471.115 175.543 467.599 173.415 463.699 170.587L462.378 169.603C461.749 169.108 461.418 168.793 460.925 168.381L458.201 166.032C457.28 165.302 456.449 164.324 455.594 163.42C454.761 162.486 453.874 161.632 453.093 160.62C449.854 156.593 447.553 151.797 445.855 147.261C444.368 142.922 442.9 138.637 441.457 134.417C440.088 130.34 438.527 126.556 436.841 123.963C436.636 123.712 436.437 123.457 436.241 123.186C436.055 123.004 435.903 122.888 435.746 122.694C435.631 122.656 435.543 122.556 435.479 122.504C435.44 122.57 435.435 122.379 435.376 122.459C435.244 122.318 434.095 122.902 433.081 124.046C432.022 125.118 431.013 126.664 430.092 128.051C429.609 128.8 429.109 129.682 428.629 130.483C428.198 131.255 427.779 132.015 427.362 132.772C425.657 135.918 424.167 139.243 422.504 142.485C420.833 145.716 418.802 148.82 416.472 151.371C415.921 151.908 415.379 152.433 414.842 152.952L414.443 153.339L414.147 153.635L413.916 153.82L413.015 154.558C411.814 155.518 410.611 156.327 409.45 157.071C404.785 160.004 400.669 161.889 397.584 164.07C394.485 166.181 392.378 168.409 391.2 170.167C389.984 171.911 389.59 173.089 389.546 173.044Z" fill="#FE673A"/>
<path d="M321.987 103.853C302.148 93.6838 265.791 177.165 254.398 189.871C248.206 196.781 241.525 200.307 236.447 207.931C230.981 216.135 230.553 226.289 226.612 234.337C222.897 241.923 215.378 245.581 209.5 251.137C201.149 259.027 200.073 268.583 192.944 277.476C189.799 281.408 184.685 285.087 180.828 288.328C191.213 292.929 221.381 268.627 203.677 294.298C194.815 307.144 186.159 323.123 179.439 337.204C192.154 337.76 211.435 308.304 217.31 296.841C219.94 291.712 221.709 282.887 226.839 280.241C230.934 278.136 239.77 289.183 238.651 275.443C255.448 276.847 251.378 245.581 263.698 237.359C267.229 244.861 263.171 252.415 263.908 260.11C264.294 264.13 267.279 272.2 267.674 278.892C271.397 276.8 272.939 271.05 275.597 266.496C280.018 268.195 282.134 272.479 281.567 277.6C284.086 277.771 289.414 276.624 291.538 277.799C292.34 278.237 299.005 283.28 297.856 282.899C305.502 285.408 302.115 288.585 305.748 279.063C307.602 274.216 307.489 269.039 309.461 264.14C311.126 260.003 320.381 252.12 307.084 252.214C305.973 244.017 307.42 234.537 310.391 227.006C314.078 217.649 317.586 218.165 322.921 210.535C326.308 205.694 325.327 198.246 329.241 193.04C334.279 186.347 341.337 186.513 339.589 175.171C360.137 173.507 335.987 158.375 336.869 148.394C329.714 154.165 329.057 165.308 321.729 172.09C311.701 181.369 313.515 180.357 311.547 195.263C310.221 205.28 307.645 207.778 299.89 213.072C291.254 218.97 290.148 220.764 284.618 229.548C282.683 232.621 284.85 238.56 279.332 236.97C275.332 235.816 275.351 223.837 275.592 220.593C275.966 215.495 278.873 211.506 278.863 206.947C278.856 203.033 274.105 203.688 275.597 196.47C276.789 190.697 285.084 183.085 288.636 178.798C295.743 170.213 295.933 168.192 296.673 156.127C301.543 154.496 305.353 151.856 308.998 148.014C310.145 146.802 309.719 143.253 311.228 141.661C312.817 139.983 316.848 138.479 317.633 137.177C322.134 129.711 321.89 114.98 323.148 105.121" fill="#FE673A"/>
<path d="M218.231 149.998C216.866 157.408 208.548 177.011 199.221 181.411C198.998 186.912 202.35 189.878 207.233 189.513C207.12 196.271 201.882 194.682 200.274 199.143C197.633 206.487 199.684 203.018 200.206 212.355C200.676 220.758 201.732 237.209 199.096 244.711C192.638 243.105 191.905 227.295 184.592 228.832C179.324 229.934 176.328 245.836 173.77 249.971C170.531 255.206 164.979 258.805 161.823 264.164C157.183 272.053 158.722 278.974 155.747 287.106C152.952 281.912 151.891 274.314 149.534 268.134C142.083 267.382 131.979 279.875 126.619 285.251C118.975 292.924 112.009 300.448 105.169 309.406C106.428 304.752 106.433 298.806 107.538 293.9C96.4122 294.467 89.9907 310.313 78.0149 306.974C86.0069 300.96 94.7315 295.056 97.9582 284.472C87.5872 282.537 80.3375 289.574 70.8117 291.037C89.9123 281.003 112.823 274.237 129.257 259.46C142.76 247.323 150.835 231.062 161.431 216.045C170.94 202.565 180.819 194.024 189.127 179.521C193.512 171.859 197.143 165.446 203.518 159.155C208.511 154.221 216.023 150.526 219.439 144.575" fill="#FE673A"/>
<path d="M394.353 192.02C397.268 181.597 407.698 179.773 413.331 172.766C414.771 170.977 412.312 166.453 413.522 164.844C414.828 163.092 417.638 161.701 418.647 159.855C421.377 154.871 425.201 152.433 426.762 146.444C432.008 160.844 421.494 174.073 424.327 187.954C425.64 194.389 429.136 198.919 430.726 204.591C432.446 210.763 426.051 214.348 435.474 220.18C441.394 223.84 449.641 220.907 455.359 225.916C457.78 228.03 456.51 231.895 458.968 234.374C461.656 237.083 464.679 237.221 467.707 239.427C478.593 247.359 480.683 257.432 490.056 266.672C479.654 263.023 473.516 252.65 464.039 247.263C458.995 244.391 453.303 244.095 448.425 240.518C443.959 237.24 441.874 230.012 438.505 227.607C433.754 224.227 428.747 226.972 424.332 224.614C420.353 222.497 417.155 215.927 413.517 212.621C406.228 206.006 397.543 202.098 391.949 193.372" fill="#FE673A"/>
<path d="M344.248 483.209L397.853 531.566" stroke="#6E1731" stroke-width="0.359261"/>
<path d="M346.325 532.789L400.638 485.228" stroke="#6E1731" stroke-width="0.359261"/>
<path d="M407.419 508.992H341.065" stroke="#6E1731" stroke-width="0.331482"/>
<path d="M373.982 543.319L373.239 471.129" stroke="#6E1731" stroke-width="0.359261"/>
<path d="M203.645 537.488L257.958 489.927" stroke="#6E1731" stroke-width="0.359261"/>
<path d="M264.739 513.691L198.385 513.691" stroke="#6E1731" stroke-width="0.331482"/>
<path d="M231.302 548.019L230.558 475.829" stroke="#6E1731" stroke-width="0.359261"/>
<path d="M231.582 550.786C253.419 550.786 271.121 533.551 271.121 512.29C271.121 491.028 253.419 473.793 231.582 473.793C209.745 473.793 192.043 491.028 192.043 512.29C192.043 533.551 209.745 550.786 231.582 550.786Z" stroke="#6E1731" stroke-width="9.07"/>
<path d="M201.567 487.908L255.172 536.266" stroke="#6E1731" stroke-width="0.359261"/>
<path d="M282.768 512.087H229.766C228.367 512.087 227.234 513.221 227.234 514.619C227.234 516.018 228.367 517.152 229.766 517.152H282.768C284.167 517.152 285.301 516.018 285.301 514.619C285.301 513.221 284.167 512.087 282.768 512.087Z" fill="#FE673A"/>
<path d="M269.955 470.906L226.756 511.718C225.602 512.808 225.926 513.953 227.48 514.276C229.035 514.599 231.23 513.977 232.384 512.887L275.582 472.076C276.736 470.985 276.412 469.84 274.858 469.517C273.304 469.194 271.108 469.816 269.955 470.906Z" fill="#FE673A"/>
<path d="M285.995 512.813L269.176 425.259C268.934 423.997 267.806 423.442 266.658 424.019C265.509 424.596 264.775 426.086 265.017 427.348L281.836 514.902C282.079 516.164 283.206 516.72 284.355 516.143C285.503 515.566 286.238 514.075 285.995 512.813Z" fill="#FE673A"/>
<path d="M286.018 515.067L355.54 442.448C356.516 441.428 356.419 439.881 355.323 438.992C354.227 438.102 352.547 438.208 351.571 439.228L282.049 511.847C281.073 512.867 281.17 514.414 282.266 515.303C283.362 516.193 285.042 516.087 286.018 515.067Z" fill="#FE673A"/>
<path d="M374.242 546.532C396.079 546.532 413.781 529.296 413.781 508.035C413.781 486.774 396.079 469.538 374.242 469.538C352.406 469.538 334.703 486.774 334.703 508.035C334.703 529.296 352.406 546.532 374.242 546.532Z" stroke="#6E1731" stroke-width="9.07"/>
<path d="M376.301 505.753L354.48 432.642C354.125 431.454 352.936 430.935 351.823 431.483C350.711 432.031 350.097 433.439 350.451 434.627L372.273 507.737C372.627 508.926 373.817 509.445 374.929 508.897C376.041 508.349 376.656 506.941 376.301 505.753Z" fill="#FE673A"/>
<path d="M348.985 439.049H272.266C270.867 439.049 269.733 440.183 269.733 441.582C269.733 442.98 270.867 444.114 272.266 444.114H348.985C350.384 444.114 351.518 442.98 351.518 441.582C351.518 440.183 350.384 439.049 348.985 439.049Z" fill="#FE673A"/>
<path d="M363.082 429.851C365.599 432.97 367.322 435.916 368.109 438.447C368.896 440.977 368.725 443.022 367.61 444.413C366.495 445.804 364.467 446.502 361.693 446.45C358.919 446.398 355.477 445.598 351.648 444.114" stroke="#6E1731" stroke-width="4.38"/>
<path d="M362.624 427.503H352.763C351.365 427.503 350.231 428.637 350.231 430.035C350.231 431.434 351.365 432.568 352.763 432.568H362.624C364.023 432.568 365.157 431.434 365.157 430.035C365.157 428.637 364.023 427.503 362.624 427.503Z" fill="#6E1731"/>
<path d="M280.295 419.998H259.088C257.69 419.998 256.556 421.132 256.556 422.531C256.556 423.929 257.69 425.063 259.088 425.063H280.295C281.694 425.063 282.827 423.929 282.827 422.531C282.827 421.132 281.694 419.998 280.295 419.998Z" fill="#6E1731"/>
<path d="M339.797 245.877C343.615 244.289 355.365 243.498 360.615 248.722C363.173 246.971 363.336 243.514 361.462 240.106C364.549 237.839 365.666 242.183 368.24 241.796C372.476 241.156 370.194 240.877 374.221 237.254C377.844 233.993 384.892 227.511 389.197 226.812C390.734 232.046 383.862 238.071 387.116 242.832C389.457 246.262 397.675 242.905 400.435 243.319C403.929 243.845 407.495 246.613 411.016 247.035C416.197 247.653 418.779 244.133 423.487 243.46C422.124 247.289 419.07 250.698 417.108 254.553C419.378 260.208 428.548 263.181 432.848 265.193C438.984 268.06 444.814 270.488 451.248 272.327C448.709 273.033 446.026 275.096 443.427 276.001C447.578 283.859 456.97 283 459.658 292.831C454.148 289.135 448.432 284.871 442.53 286.213C445.289 294.394 451 297.197 454.994 303.585C443.783 293.244 432.712 279.009 420.296 272.247C410.097 266.69 399.939 266.495 389.459 264.043C380.052 261.844 372.743 257.661 363.296 256.687C358.306 256.175 354.144 255.775 349.076 253.346C345.103 251.446 340.808 247.292 336.929 246.887" fill="#FE673A"/>
<path d="M163.678 382.068L170.929 358.008H178.268L167.128 390H160.25L149.154 358.008H156.471L163.678 382.068ZM197.889 381.607C197.889 380.361 197.45 379.409 196.571 378.75C195.692 378.076 194.11 377.373 191.825 376.641C189.54 375.894 187.731 375.161 186.398 374.443C182.765 372.481 180.948 369.836 180.948 366.511C180.948 364.783 181.432 363.245 182.399 361.897C183.38 360.535 184.779 359.473 186.595 358.711C188.426 357.949 190.477 357.568 192.748 357.568C195.033 357.568 197.069 357.986 198.856 358.821C200.643 359.641 202.028 360.806 203.009 362.315C204.005 363.823 204.503 365.537 204.503 367.456H197.911C197.911 365.991 197.45 364.856 196.527 364.05C195.604 363.23 194.308 362.82 192.638 362.82C191.027 362.82 189.774 363.164 188.881 363.853C187.987 364.526 187.54 365.42 187.54 366.533C187.54 367.573 188.06 368.445 189.1 369.148C190.155 369.851 191.7 370.51 193.737 371.126C197.487 372.253 200.218 373.652 201.932 375.322C203.646 376.992 204.503 379.072 204.503 381.563C204.503 384.331 203.456 386.506 201.361 388.088C199.266 389.656 196.446 390.44 192.902 390.44C190.441 390.44 188.199 389.993 186.178 389.099C184.156 388.191 182.611 386.953 181.542 385.386C180.487 383.818 179.96 382.002 179.96 379.937H186.573C186.573 383.467 188.683 385.232 192.902 385.232C194.469 385.232 195.692 384.917 196.571 384.287C197.45 383.643 197.889 382.749 197.889 381.607ZM215.577 384.705H229.574V390H208.986V358.008H215.577V384.705ZM239.967 384.705H253.964V390H233.375V358.008H239.967V384.705ZM294.086 379.343C293.837 382.786 292.562 385.496 290.262 387.473C287.977 389.451 284.96 390.44 281.21 390.44C277.108 390.44 273.878 389.063 271.52 386.309C269.176 383.54 268.004 379.746 268.004 374.927V372.971C268.004 369.895 268.546 367.185 269.63 364.841C270.714 362.498 272.259 360.703 274.266 359.458C276.288 358.198 278.632 357.568 281.298 357.568C284.989 357.568 287.963 358.557 290.218 360.535C292.474 362.512 293.778 365.288 294.13 368.862H287.538C287.377 366.797 286.798 365.303 285.802 364.38C284.82 363.442 283.319 362.974 281.298 362.974C279.1 362.974 277.452 363.765 276.354 365.347C275.27 366.914 274.713 369.353 274.684 372.664V375.081C274.684 378.538 275.204 381.065 276.244 382.661C277.299 384.258 278.954 385.056 281.21 385.056C283.246 385.056 284.762 384.595 285.758 383.672C286.769 382.734 287.347 381.292 287.494 379.343H294.086ZM316.476 383.408H304.918L302.721 390H295.712L307.621 358.008H313.729L325.704 390H318.695L316.476 383.408ZM306.698 378.069H314.696L310.675 366.094L306.698 378.069ZM345.282 381.607C345.282 380.361 344.842 379.409 343.964 378.75C343.085 378.076 341.503 377.373 339.217 376.641C336.932 375.894 335.123 375.161 333.79 374.443C330.157 372.481 328.341 369.836 328.341 366.511C328.341 364.783 328.824 363.245 329.791 361.897C330.773 360.535 332.172 359.473 333.988 358.711C335.819 357.949 337.87 357.568 340.14 357.568C342.425 357.568 344.462 357.986 346.249 358.821C348.036 359.641 349.42 360.806 350.402 362.315C351.398 363.823 351.896 365.537 351.896 367.456H345.304C345.304 365.991 344.842 364.856 343.92 364.05C342.997 363.23 341.7 362.82 340.03 362.82C338.419 362.82 337.167 363.164 336.273 363.853C335.38 364.526 334.933 365.42 334.933 366.533C334.933 367.573 335.453 368.445 336.493 369.148C337.548 369.851 339.093 370.51 341.129 371.126C344.879 372.253 347.611 373.652 349.325 375.322C351.039 376.992 351.896 379.072 351.896 381.563C351.896 384.331 350.848 386.506 348.754 388.088C346.659 389.656 343.839 390.44 340.294 390.44C337.833 390.44 335.592 389.993 333.57 389.099C331.549 388.191 330.004 386.953 328.934 385.386C327.88 383.818 327.352 382.002 327.352 379.937H333.966C333.966 383.467 336.075 385.232 340.294 385.232C341.862 385.232 343.085 384.917 343.964 384.287C344.842 383.643 345.282 382.749 345.282 381.607ZM380.46 363.347H370.66V390H364.069V363.347H354.401V358.008H380.46V363.347ZM396.083 378.289H390.831V390H384.239V358.008H396.127C399.906 358.008 402.821 358.85 404.872 360.535C406.923 362.219 407.948 364.6 407.948 367.676C407.948 369.858 407.472 371.682 406.52 373.147C405.582 374.597 404.154 375.754 402.235 376.619L409.156 389.692V390H402.081L396.083 378.289ZM390.831 372.949H396.149C397.804 372.949 399.086 372.532 399.994 371.697C400.902 370.847 401.356 369.683 401.356 368.203C401.356 366.694 400.924 365.508 400.06 364.644C399.21 363.779 397.899 363.347 396.127 363.347H390.831V372.949ZM432.228 376.135H419.571V384.705H434.425V390H412.98V358.008H434.381V363.347H419.571V370.972H432.228V376.135ZM454.882 381.607C454.882 380.361 454.442 379.409 453.563 378.75C452.684 378.076 451.102 377.373 448.817 376.641C446.532 375.894 444.723 375.161 443.39 374.443C439.757 372.481 437.941 369.836 437.941 366.511C437.941 364.783 438.424 363.245 439.391 361.897C440.372 360.535 441.771 359.473 443.588 358.711C445.419 357.949 447.469 357.568 449.74 357.568C452.025 357.568 454.061 357.986 455.848 358.821C457.635 359.641 459.02 360.806 460.001 362.315C460.997 363.823 461.495 365.537 461.495 367.456H454.904C454.904 365.991 454.442 364.856 453.519 364.05C452.596 363.23 451.3 362.82 449.63 362.82C448.019 362.82 446.766 363.164 445.873 363.853C444.979 364.526 444.532 365.42 444.532 366.533C444.532 367.573 445.052 368.445 446.092 369.148C447.147 369.851 448.693 370.51 450.729 371.126C454.479 372.253 457.211 373.652 458.924 375.322C460.638 376.992 461.495 379.072 461.495 381.563C461.495 384.331 460.448 386.506 458.353 388.088C456.258 389.656 453.439 390.44 449.894 390.44C447.433 390.44 445.192 389.993 443.17 389.099C441.149 388.191 439.603 386.953 438.534 385.386C437.479 383.818 436.952 382.002 436.952 379.937H443.566C443.566 383.467 445.675 385.232 449.894 385.232C451.461 385.232 452.684 384.917 453.563 384.287C454.442 383.643 454.882 382.749 454.882 381.607Z" fill="#6E1731"/>
<path d="M163.678 382.068L163.627 382.083L163.678 382.253L163.729 382.083L163.678 382.068ZM170.929 358.008V357.955H170.889L170.878 357.992L170.929 358.008ZM178.268 358.008L178.318 358.025L178.343 357.955H178.268V358.008ZM167.128 390V390.053H167.165L167.178 390.018L167.128 390ZM160.25 390L160.2 390.018L160.212 390.053H160.25V390ZM149.154 358.008V357.955H149.079L149.104 358.025L149.154 358.008ZM156.471 358.008L156.522 357.993L156.511 357.955H156.471V358.008ZM163.729 382.083L170.98 358.023L170.878 357.992L163.627 382.053L163.729 382.083ZM170.929 358.061H178.268V357.955H170.929V358.061ZM178.217 357.99L167.077 389.983L167.178 390.018L178.318 358.025L178.217 357.99ZM167.128 389.947H160.25V390.053H167.128V389.947ZM160.301 389.983L149.204 357.99L149.104 358.025L160.2 390.018L160.301 389.983ZM149.154 358.061H156.471V357.955H149.154V358.061ZM156.42 358.023L163.627 382.083L163.729 382.053L156.522 357.993L156.42 358.023ZM196.571 378.75L196.539 378.792L196.539 378.793L196.571 378.75ZM191.825 376.641L191.808 376.691L191.809 376.691L191.825 376.641ZM186.398 374.443L186.372 374.49L186.372 374.49L186.398 374.443ZM182.399 361.897L182.355 361.866L182.355 361.866L182.399 361.897ZM186.595 358.711L186.575 358.662L186.575 358.662L186.595 358.711ZM198.856 358.821L198.834 358.869L198.834 358.869L198.856 358.821ZM203.009 362.315L202.964 362.344L202.965 362.344L203.009 362.315ZM204.503 367.456V367.509H204.556V367.456H204.503ZM197.911 367.456H197.858V367.509H197.911V367.456ZM196.527 364.05L196.492 364.09L196.492 364.09L196.527 364.05ZM188.881 363.853L188.913 363.895L188.913 363.895L188.881 363.853ZM189.1 369.148L189.07 369.192L189.071 369.192L189.1 369.148ZM193.737 371.126L193.721 371.177L193.721 371.177L193.737 371.126ZM201.361 388.088L201.393 388.131L201.393 388.131L201.361 388.088ZM186.178 389.099L186.156 389.148L186.156 389.148L186.178 389.099ZM181.542 385.386L181.497 385.416L181.498 385.416L181.542 385.386ZM179.96 379.937V379.883H179.906V379.937H179.96ZM186.573 379.937H186.627V379.883H186.573V379.937ZM196.571 384.287L196.602 384.33L196.602 384.33L196.571 384.287ZM197.943 381.607C197.943 380.347 197.497 379.378 196.603 378.707L196.539 378.793C197.403 379.44 197.836 380.376 197.836 381.607H197.943ZM196.603 378.708C195.717 378.028 194.127 377.323 191.841 376.59L191.809 376.691C194.093 377.424 195.667 378.125 196.539 378.792L196.603 378.708ZM191.841 376.59C189.558 375.843 187.752 375.112 186.423 374.397L186.372 374.49C187.709 375.21 189.522 375.944 191.808 376.691L191.841 376.59ZM186.423 374.397C182.802 372.44 181.002 369.812 181.002 366.511H180.895C180.895 369.861 182.727 372.521 186.372 374.49L186.423 374.397ZM181.002 366.511C181.002 364.793 181.482 363.266 182.442 361.928L182.355 361.866C181.382 363.223 180.895 364.772 180.895 366.511H181.002ZM182.442 361.928C183.417 360.575 184.807 359.519 186.616 358.76L186.575 358.662C184.751 359.427 183.344 360.494 182.355 361.866L182.442 361.928ZM186.616 358.76C188.44 358.002 190.483 357.622 192.748 357.622V357.515C190.471 357.515 188.413 357.897 186.575 358.662L186.616 358.76ZM192.748 357.622C195.026 357.622 197.055 358.038 198.834 358.869L198.879 358.773C197.083 357.934 195.039 357.515 192.748 357.515V357.622ZM198.834 358.869C200.613 359.686 201.989 360.844 202.964 362.344L203.054 362.285C202.066 360.767 200.674 359.597 198.878 358.772L198.834 358.869ZM202.965 362.344C203.954 363.843 204.45 365.547 204.45 367.456H204.556C204.556 365.527 204.056 363.803 203.053 362.285L202.965 362.344ZM204.503 367.403H197.911V367.509H204.503V367.403ZM197.965 367.456C197.965 365.979 197.499 364.828 196.562 364.01L196.492 364.09C197.401 364.884 197.858 366.003 197.858 367.456H197.965ZM196.562 364.011C195.627 363.179 194.316 362.767 192.638 362.767V362.873C194.299 362.873 195.582 363.281 196.492 364.09L196.562 364.011ZM192.638 362.767C191.02 362.767 189.754 363.112 188.848 363.81L188.913 363.895C189.794 363.216 191.033 362.873 192.638 362.873V362.767ZM188.848 363.81C187.942 364.494 187.487 365.403 187.487 366.533H187.594C187.594 365.437 188.032 364.559 188.913 363.895L188.848 363.81ZM187.487 366.533C187.487 367.595 188.019 368.481 189.07 369.192L189.13 369.104C188.101 368.408 187.594 367.552 187.594 366.533H187.487ZM189.071 369.192C190.132 369.9 191.683 370.561 193.721 371.177L193.752 371.075C191.718 370.46 190.178 369.803 189.13 369.104L189.071 369.192ZM193.721 371.177C197.468 372.303 200.19 373.699 201.895 375.36L201.969 375.284C200.247 373.606 197.505 372.204 193.752 371.075L193.721 371.177ZM201.895 375.36C203.598 377.02 204.45 379.086 204.45 381.563H204.556C204.556 379.059 203.694 376.965 201.969 375.284L201.895 375.36ZM204.45 381.563C204.45 384.315 203.409 386.475 201.329 388.046L201.393 388.131C203.502 386.538 204.556 384.347 204.556 381.563H204.45ZM201.329 388.046C199.246 389.604 196.439 390.386 192.902 390.386V390.493C196.454 390.493 199.286 389.707 201.393 388.131L201.329 388.046ZM192.902 390.386C190.447 390.386 188.213 389.941 186.199 389.05L186.156 389.148C188.185 390.045 190.434 390.493 192.902 390.493V390.386ZM186.2 389.051C184.186 388.146 182.649 386.914 181.586 385.356L181.498 385.416C182.573 386.993 184.127 388.236 186.156 389.148L186.2 389.051ZM181.586 385.356C180.538 383.798 180.013 381.992 180.013 379.937H179.906C179.906 382.012 180.436 383.839 181.497 385.416L181.586 385.356ZM179.96 379.99H186.573V379.883H179.96V379.99ZM186.52 379.937C186.52 381.713 187.051 383.054 188.121 383.949C189.189 384.843 190.786 385.285 192.902 385.285V385.179C190.798 385.179 189.231 384.739 188.19 383.867C187.15 382.998 186.627 381.691 186.627 379.937H186.52ZM192.902 385.285C194.475 385.285 195.711 384.969 196.602 384.33L196.54 384.244C195.673 384.865 194.463 385.179 192.902 385.179V385.285ZM196.602 384.33C197.496 383.675 197.943 382.765 197.943 381.607H197.836C197.836 382.733 197.404 383.61 196.539 384.244L196.602 384.33ZM215.577 384.705H215.524V384.758H215.577V384.705ZM229.574 384.705H229.627V384.651H229.574V384.705ZM229.574 390V390.053H229.627V390H229.574ZM208.986 390H208.932V390.053H208.986V390ZM208.986 358.008V357.955H208.932V358.008H208.986ZM215.577 358.008H215.631V357.955H215.577V358.008ZM215.577 384.758H229.574V384.651H215.577V384.758ZM229.521 384.705V390H229.627V384.705H229.521ZM229.574 389.947H208.986V390.053H229.574V389.947ZM209.039 390V358.008H208.932V390H209.039ZM208.986 358.061H215.577V357.955H208.986V358.061ZM215.524 358.008V384.705H215.631V358.008H215.524ZM239.967 384.705H239.914V384.758H239.967V384.705ZM253.964 384.705H254.017V384.651H253.964V384.705ZM253.964 390V390.053H254.017V390H253.964ZM233.375 390H233.322V390.053H233.375V390ZM233.375 358.008V357.955H233.322V358.008H233.375ZM239.967 358.008H240.02V357.955H239.967V358.008ZM239.967 384.758H253.964V384.651H239.967V384.758ZM253.91 384.705V390H254.017V384.705H253.91ZM253.964 389.947H233.375V390.053H253.964V389.947ZM233.428 390V358.008H233.322V390H233.428ZM233.375 358.061H239.967V357.955H233.375V358.061ZM239.914 358.008V384.705H240.02V358.008H239.914ZM294.086 379.343L294.139 379.347L294.143 379.29H294.086V379.343ZM290.262 387.473L290.228 387.433L290.228 387.433L290.262 387.473ZM271.52 386.309L271.479 386.343L271.479 386.343L271.52 386.309ZM274.266 359.458L274.294 359.503L274.294 359.503L274.266 359.458ZM294.13 368.862V368.916H294.188L294.183 368.857L294.13 368.862ZM287.538 368.862L287.485 368.867L287.488 368.916H287.538V368.862ZM285.802 364.38L285.765 364.418L285.766 364.419L285.802 364.38ZM276.354 365.347L276.31 365.316L276.31 365.316L276.354 365.347ZM274.684 372.664L274.63 372.663V372.664H274.684ZM276.244 382.661L276.199 382.69L276.199 382.691L276.244 382.661ZM285.758 383.672L285.794 383.711L285.794 383.711L285.758 383.672ZM287.494 379.343V379.29H287.444L287.441 379.339L287.494 379.343ZM294.032 379.339C293.784 382.77 292.515 385.466 290.228 387.433L290.297 387.514C292.609 385.526 293.889 382.802 294.139 379.347L294.032 379.339ZM290.228 387.433C287.954 389.4 284.95 390.386 281.21 390.386V390.493C284.969 390.493 288 389.501 290.297 387.513L290.228 387.433ZM281.21 390.386C277.121 390.386 273.907 389.014 271.56 386.274L271.479 386.343C273.849 389.111 277.095 390.493 281.21 390.493V390.386ZM271.56 386.274C269.227 383.518 268.057 379.738 268.057 374.927H267.951C267.951 379.755 269.125 383.562 271.479 386.343L271.56 386.274ZM268.057 374.927V372.971H267.951V374.927H268.057ZM268.057 372.971C268.057 369.901 268.598 367.199 269.678 364.864L269.582 364.819C268.494 367.171 267.951 369.889 267.951 372.971H268.057ZM269.678 364.864C270.758 362.529 272.297 360.742 274.294 359.503L274.238 359.413C272.222 360.664 270.67 362.467 269.582 364.819L269.678 364.864ZM274.294 359.503C276.307 358.249 278.64 357.622 281.298 357.622V357.515C278.623 357.515 276.269 358.147 274.238 359.413L274.294 359.503ZM281.298 357.622C284.979 357.622 287.939 358.608 290.183 360.575L290.254 360.495C287.986 358.507 284.999 357.515 281.298 357.515V357.622ZM290.183 360.575C292.427 362.542 293.726 365.304 294.077 368.868L294.183 368.857C293.83 365.272 292.522 362.483 290.254 360.495L290.183 360.575ZM294.13 368.809H287.538V368.916H294.13V368.809ZM287.591 368.858C287.429 366.786 286.848 365.277 285.838 364.341L285.766 364.419C286.748 365.329 287.324 366.808 287.485 368.867L287.591 368.858ZM285.839 364.341C284.843 363.391 283.326 362.92 281.298 362.92V363.027C283.312 363.027 284.798 363.494 285.765 364.418L285.839 364.341ZM281.298 362.92C279.086 362.92 277.42 363.718 276.31 365.316L276.397 365.377C277.485 363.812 279.115 363.027 281.298 363.027V362.92ZM276.31 365.316C275.217 366.897 274.66 369.349 274.631 372.663L274.737 372.664C274.766 369.357 275.323 366.931 276.398 365.377L276.31 365.316ZM274.63 372.664V375.081H274.737V372.664H274.63ZM274.63 375.081C274.63 378.541 275.151 381.08 276.199 382.69L276.288 382.632C275.257 381.049 274.737 378.535 274.737 375.081H274.63ZM276.199 382.691C277.266 384.305 278.94 385.109 281.21 385.109V385.003C278.968 385.003 277.331 384.211 276.288 382.632L276.199 382.691ZM281.21 385.109C283.253 385.109 284.784 384.647 285.794 383.711L285.722 383.633C284.739 384.543 283.239 385.003 281.21 385.003V385.109ZM285.794 383.711C286.818 382.761 287.4 381.303 287.547 379.347L287.441 379.339C287.295 381.28 286.719 382.708 285.722 383.633L285.794 383.711ZM287.494 379.397H294.086V379.29H287.494V379.397ZM316.476 383.408L316.526 383.391L316.514 383.355H316.476V383.408ZM304.918 383.408V383.355H304.88L304.868 383.391L304.918 383.408ZM302.721 390V390.053H302.759L302.771 390.017L302.721 390ZM295.712 390L295.662 389.981L295.635 390.053H295.712V390ZM307.621 358.008V357.955H307.584L307.571 357.989L307.621 358.008ZM313.729 358.008L313.779 357.989L313.766 357.955H313.729V358.008ZM325.704 390V390.053H325.781L325.754 389.981L325.704 390ZM318.695 390L318.645 390.017L318.657 390.053H318.695V390ZM306.698 378.069L306.647 378.052L306.624 378.122H306.698V378.069ZM314.696 378.069V378.122H314.77L314.746 378.052L314.696 378.069ZM310.675 366.094L310.725 366.077L310.675 365.926L310.624 366.077L310.675 366.094ZM316.476 383.355H304.918V383.462H316.476V383.355ZM304.868 383.391L302.67 389.983L302.771 390.017L304.969 383.425L304.868 383.391ZM302.721 389.947H295.712V390.053H302.721V389.947ZM295.762 390.019L307.671 358.026L307.571 357.989L295.662 389.981L295.762 390.019ZM307.621 358.061H313.729V357.955H307.621V358.061ZM313.679 358.027L325.654 390.019L325.754 389.981L313.779 357.989L313.679 358.027ZM325.704 389.947H318.695V390.053H325.704V389.947ZM318.745 389.983L316.526 383.391L316.425 383.425L318.645 390.017L318.745 389.983ZM306.698 378.122H314.696V378.016H306.698V378.122ZM314.746 378.052L310.725 366.077L310.624 366.111L314.645 378.086L314.746 378.052ZM310.624 366.077L306.647 378.052L306.749 378.086L310.726 366.111L310.624 366.077ZM343.964 378.75L343.931 378.792L343.932 378.793L343.964 378.75ZM339.217 376.641L339.201 376.691L339.201 376.691L339.217 376.641ZM333.79 374.443L333.765 374.49L333.765 374.49L333.79 374.443ZM329.791 361.897L329.748 361.866L329.748 361.866L329.791 361.897ZM333.988 358.711L333.968 358.662L333.967 358.662L333.988 358.711ZM346.249 358.821L346.226 358.869L346.226 358.869L346.249 358.821ZM350.402 362.315L350.357 362.344L350.357 362.344L350.402 362.315ZM351.896 367.456V367.509H351.949V367.456H351.896ZM345.304 367.456H345.251V367.509H345.304V367.456ZM343.92 364.05L343.884 364.09L343.885 364.09L343.92 364.05ZM336.273 363.853L336.305 363.895L336.306 363.895L336.273 363.853ZM336.493 369.148L336.463 369.192L336.463 369.192L336.493 369.148ZM341.129 371.126L341.114 371.177L341.114 371.177L341.129 371.126ZM348.754 388.088L348.786 388.131L348.786 388.131L348.754 388.088ZM333.57 389.099L333.549 389.148L333.549 389.148L333.57 389.099ZM328.934 385.386L328.89 385.416L328.89 385.416L328.934 385.386ZM327.352 379.937V379.883H327.299V379.937H327.352ZM333.966 379.937H334.019V379.883H333.966V379.937ZM343.964 384.287L343.995 384.33L343.995 384.33L343.964 384.287ZM345.335 381.607C345.335 380.347 344.89 379.378 343.996 378.707L343.932 378.793C344.795 379.44 345.229 380.376 345.229 381.607H345.335ZM343.996 378.708C343.109 378.028 341.52 377.323 339.234 376.59L339.201 376.691C341.486 377.424 343.06 378.125 343.931 378.792L343.996 378.708ZM339.234 376.59C336.95 375.843 335.145 375.112 333.815 374.397L333.765 374.49C335.102 375.21 336.914 375.944 339.201 376.691L339.234 376.59ZM333.816 374.397C330.195 372.44 328.394 369.812 328.394 366.511H328.288C328.288 369.861 330.12 372.521 333.765 374.49L333.816 374.397ZM328.394 366.511C328.394 364.793 328.874 363.266 329.834 361.928L329.748 361.866C328.774 363.223 328.288 364.772 328.288 366.511H328.394ZM329.834 361.928C330.809 360.575 332.2 359.519 334.009 358.76L333.967 358.662C332.143 359.427 330.736 360.494 329.748 361.866L329.834 361.928ZM334.008 358.76C335.832 358.002 337.876 357.622 340.14 357.622V357.515C337.864 357.515 335.806 357.897 333.968 358.662L334.008 358.76ZM340.14 357.622C342.419 357.622 344.447 358.038 346.226 358.869L346.271 358.773C344.476 357.934 342.432 357.515 340.14 357.515V357.622ZM346.226 358.869C348.005 359.686 349.381 360.844 350.357 362.344L350.446 362.285C349.459 360.767 348.066 359.597 346.271 358.772L346.226 358.869ZM350.357 362.344C351.347 363.843 351.842 365.547 351.842 367.456H351.949C351.949 365.527 351.448 363.803 350.446 362.285L350.357 362.344ZM351.896 367.403H345.304V367.509H351.896V367.403ZM345.357 367.456C345.357 365.979 344.891 364.828 343.955 364.01L343.885 364.09C344.794 364.884 345.251 366.003 345.251 367.456H345.357ZM343.955 364.011C343.019 363.179 341.709 362.767 340.03 362.767V362.873C341.692 362.873 342.974 363.281 343.884 364.09L343.955 364.011ZM340.03 362.767C338.412 362.767 337.147 363.112 336.241 363.81L336.306 363.895C337.187 363.216 338.426 362.873 340.03 362.873V362.767ZM336.241 363.81C335.334 364.494 334.88 365.403 334.88 366.533H334.986C334.986 365.437 335.425 364.559 336.305 363.895L336.241 363.81ZM334.88 366.533C334.88 367.595 335.412 368.481 336.463 369.192L336.523 369.104C335.494 368.408 334.986 367.552 334.986 366.533H334.88ZM336.463 369.192C337.524 369.9 339.075 370.561 341.114 371.177L341.145 371.075C339.11 370.46 337.571 369.803 336.522 369.104L336.463 369.192ZM341.114 371.177C344.86 372.303 347.583 373.699 349.288 375.36L349.362 375.284C347.639 373.606 344.898 372.204 341.144 371.075L341.114 371.177ZM349.288 375.36C350.991 377.02 351.842 379.086 351.842 381.563H351.949C351.949 379.059 351.087 376.965 349.362 375.284L349.288 375.36ZM351.842 381.563C351.842 384.315 350.802 386.475 348.721 388.046L348.786 388.131C350.895 386.538 351.949 384.347 351.949 381.563H351.842ZM348.722 388.046C346.639 389.604 343.832 390.386 340.294 390.386V390.493C343.847 390.493 346.679 389.707 348.786 388.131L348.722 388.046ZM340.294 390.386C337.84 390.386 335.606 389.941 333.592 389.05L333.549 389.148C335.578 390.045 337.827 390.493 340.294 390.493V390.386ZM333.592 389.051C331.578 388.146 330.041 386.914 328.978 385.356L328.89 385.416C329.966 386.993 331.52 388.236 333.549 389.148L333.592 389.051ZM328.978 385.356C327.93 383.798 327.406 381.992 327.406 379.937H327.299C327.299 382.012 327.829 383.839 328.89 385.416L328.978 385.356ZM327.352 379.99H333.966V379.883H327.352V379.99ZM333.913 379.937C333.913 381.713 334.444 383.054 335.514 383.949C336.582 384.843 338.179 385.285 340.294 385.285V385.179C338.191 385.179 336.623 384.739 335.582 383.867C334.543 382.998 334.019 381.691 334.019 379.937H333.913ZM340.294 385.285C341.868 385.285 343.103 384.969 343.995 384.33L343.933 384.244C343.066 384.865 341.855 385.179 340.294 385.179V385.285ZM343.995 384.33C344.888 383.675 345.335 382.765 345.335 381.607H345.229C345.229 382.733 344.797 383.61 343.932 384.244L343.995 384.33ZM380.46 363.347V363.401H380.513V363.347H380.46ZM370.66 363.347V363.294H370.607V363.347H370.66ZM370.66 390V390.053H370.714V390H370.66ZM364.069 390H364.015V390.053H364.069V390ZM364.069 363.347H364.122V363.294H364.069V363.347ZM354.401 363.347H354.347V363.401H354.401V363.347ZM354.401 358.008V357.955H354.347V358.008H354.401ZM380.46 358.008H380.513V357.955H380.46V358.008ZM380.46 363.294H370.66V363.401H380.46V363.294ZM370.607 363.347V390H370.714V363.347H370.607ZM370.66 389.947H364.069V390.053H370.66V389.947ZM364.122 390V363.347H364.015V390H364.122ZM364.069 363.294H354.401V363.401H364.069V363.294ZM354.454 363.347V358.008H354.347V363.347H354.454ZM354.401 358.061H380.46V357.955H354.401V358.061ZM380.407 358.008V363.347H380.513V358.008H380.407ZM396.083 378.289L396.13 378.264L396.115 378.235H396.083V378.289ZM390.831 378.289V378.235H390.778V378.289H390.831ZM390.831 390V390.053H390.885V390H390.831ZM384.239 390H384.186V390.053H384.239V390ZM384.239 358.008V357.955H384.186V358.008H384.239ZM406.52 373.147L406.475 373.118L406.475 373.118L406.52 373.147ZM402.235 376.619L402.213 376.57L402.161 376.593L402.188 376.644L402.235 376.619ZM409.156 389.692H409.21V389.679L409.204 389.668L409.156 389.692ZM409.156 390V390.053H409.21V390H409.156ZM402.081 390L402.034 390.024L402.049 390.053H402.081V390ZM390.831 372.949H390.778V373.003H390.831V372.949ZM399.994 371.697L400.03 371.736L400.03 371.736L399.994 371.697ZM400.06 364.644L400.022 364.681L400.022 364.681L400.06 364.644ZM390.831 363.347V363.294H390.778V363.347H390.831ZM396.083 378.235H390.831V378.342H396.083V378.235ZM390.778 378.289V390H390.885V378.289H390.778ZM390.831 389.947H384.239V390.053H390.831V389.947ZM384.293 390V358.008H384.186V390H384.293ZM384.239 358.061H396.127V357.955H384.239V358.061ZM396.127 358.061C399.899 358.061 402.8 358.902 404.838 360.576L404.906 360.494C402.842 358.798 399.913 357.955 396.127 357.955V358.061ZM404.838 360.576C406.874 362.249 407.895 364.613 407.895 367.676H408.001C408.001 364.587 406.971 362.19 404.906 360.494L404.838 360.576ZM407.895 367.676C407.895 369.851 407.42 371.664 406.475 373.118L406.564 373.176C407.523 371.701 408.001 369.866 408.001 367.676H407.895ZM406.475 373.118C405.544 374.558 404.125 375.709 402.213 376.57L402.257 376.667C404.183 375.8 405.62 374.636 406.564 373.176L406.475 373.118ZM402.188 376.644L409.109 389.717L409.204 389.668L402.282 376.594L402.188 376.644ZM409.103 389.692V390H409.21V389.692H409.103ZM409.156 389.947H402.081V390.053H409.156V389.947ZM402.129 389.976L396.13 378.264L396.035 378.313L402.034 390.024L402.129 389.976ZM390.831 373.003H396.149V372.896H390.831V373.003ZM396.149 373.003C397.813 373.003 399.109 372.583 400.03 371.736L399.958 371.658C399.062 372.481 397.795 372.896 396.149 372.896V373.003ZM400.03 371.736C400.951 370.874 401.409 369.694 401.409 368.203H401.303C401.303 369.671 400.853 370.82 399.957 371.658L400.03 371.736ZM401.409 368.203C401.409 366.684 400.974 365.482 400.097 364.606L400.022 364.681C400.874 365.533 401.303 366.705 401.303 368.203H401.409ZM400.098 364.606C399.234 363.728 397.907 363.294 396.127 363.294V363.401C397.891 363.401 399.186 363.831 400.022 364.681L400.098 364.606ZM396.127 363.294H390.831V363.401H396.127V363.294ZM390.778 363.347V372.949H390.885V363.347H390.778ZM432.228 376.135V376.189H432.281V376.135H432.228ZM419.571 376.135V376.082H419.518V376.135H419.571ZM419.571 384.705H419.518V384.758H419.571V384.705ZM434.425 384.705H434.478V384.651H434.425V384.705ZM434.425 390V390.053H434.478V390H434.425ZM412.98 390H412.926V390.053H412.98V390ZM412.98 358.008V357.955H412.926V358.008H412.98ZM434.381 358.008H434.434V357.955H434.381V358.008ZM434.381 363.347V363.401H434.434V363.347H434.381ZM419.571 363.347V363.294H419.518V363.347H419.571ZM419.571 370.972H419.518V371.025H419.571V370.972ZM432.228 370.972H432.281V370.918H432.228V370.972ZM432.228 376.082H419.571V376.189H432.228V376.082ZM419.518 376.135V384.705H419.625V376.135H419.518ZM419.571 384.758H434.425V384.651H419.571V384.758ZM434.372 384.705V390H434.478V384.705H434.372ZM434.425 389.947H412.98V390.053H434.425V389.947ZM413.033 390V358.008H412.926V390H413.033ZM412.98 358.061H434.381V357.955H412.98V358.061ZM434.328 358.008V363.347H434.434V358.008H434.328ZM434.381 363.294H419.571V363.401H434.381V363.294ZM419.518 363.347V370.972H419.625V363.347H419.518ZM419.571 371.025H432.228V370.918H419.571V371.025ZM432.174 370.972V376.135H432.281V370.972H432.174ZM453.563 378.75L453.531 378.792L453.531 378.793L453.563 378.75ZM448.817 376.641L448.801 376.691L448.801 376.691L448.817 376.641ZM443.39 374.443L443.365 374.49L443.365 374.49L443.39 374.443ZM439.391 361.897L439.348 361.866L439.348 361.866L439.391 361.897ZM443.588 358.711L443.567 358.662L443.567 358.662L443.588 358.711ZM455.848 358.821L455.826 358.869L455.826 358.869L455.848 358.821ZM460.001 362.315L459.956 362.344L459.957 362.344L460.001 362.315ZM461.495 367.456V367.509H461.549V367.456H461.495ZM454.904 367.456H454.85V367.509H454.904V367.456ZM453.519 364.05L453.484 364.09L453.484 364.09L453.519 364.05ZM445.873 363.853L445.905 363.895L445.905 363.895L445.873 363.853ZM446.092 369.148L446.063 369.192L446.063 369.192L446.092 369.148ZM450.729 371.126L450.713 371.177L450.713 371.177L450.729 371.126ZM458.353 388.088L458.385 388.131L458.385 388.131L458.353 388.088ZM443.17 389.099L443.148 389.148L443.149 389.148L443.17 389.099ZM438.534 385.386L438.49 385.416L438.49 385.416L438.534 385.386ZM436.952 379.937V379.883H436.899V379.937H436.952ZM443.566 379.937H443.619V379.883H443.566V379.937ZM453.563 384.287L453.594 384.33L453.595 384.33L453.563 384.287ZM454.935 381.607C454.935 380.347 454.489 379.378 453.595 378.707L453.531 378.793C454.395 379.44 454.828 380.376 454.828 381.607H454.935ZM453.596 378.708C452.709 378.028 451.119 377.323 448.833 376.59L448.801 376.691C451.085 377.424 452.66 378.125 453.531 378.792L453.596 378.708ZM448.834 376.59C446.55 375.843 444.744 375.112 443.415 374.397L443.365 374.49C444.701 375.21 446.514 375.944 448.801 376.691L448.834 376.59ZM443.415 374.397C439.795 372.44 437.994 369.812 437.994 366.511H437.887C437.887 369.861 439.719 372.521 443.365 374.49L443.415 374.397ZM437.994 366.511C437.994 364.793 438.474 363.266 439.434 361.928L439.348 361.866C438.374 363.223 437.887 364.772 437.887 366.511H437.994ZM439.434 361.928C440.409 360.575 441.799 359.519 443.608 358.76L443.567 358.662C441.743 359.427 440.336 360.494 439.348 361.866L439.434 361.928ZM443.608 358.76C445.432 358.002 447.475 357.622 449.74 357.622V357.515C447.463 357.515 445.406 357.897 443.567 358.662L443.608 358.76ZM449.74 357.622C452.019 357.622 454.047 358.038 455.826 358.869L455.871 358.773C454.076 357.934 452.032 357.515 449.74 357.515V357.622ZM455.826 358.869C457.605 359.686 458.981 360.844 459.956 362.344L460.046 362.285C459.058 360.767 457.666 359.597 455.871 358.772L455.826 358.869ZM459.957 362.344C460.947 363.843 461.442 365.547 461.442 367.456H461.549C461.549 365.527 461.048 363.803 460.046 362.285L459.957 362.344ZM461.495 367.403H454.904V367.509H461.495V367.403ZM454.957 367.456C454.957 365.979 454.491 364.828 453.554 364.01L453.484 364.09C454.393 364.884 454.85 366.003 454.85 367.456H454.957ZM453.555 364.011C452.619 363.179 451.308 362.767 449.63 362.767V362.873C451.292 362.873 452.574 363.281 453.484 364.09L453.555 364.011ZM449.63 362.767C448.012 362.767 446.746 363.112 445.84 363.81L445.905 363.895C446.786 363.216 448.026 362.873 449.63 362.873V362.767ZM445.841 363.81C444.934 364.494 444.479 365.403 444.479 366.533H444.586C444.586 365.437 445.025 364.559 445.905 363.895L445.841 363.81ZM444.479 366.533C444.479 367.595 445.011 368.481 446.063 369.192L446.122 369.104C445.093 368.408 444.586 367.552 444.586 366.533H444.479ZM446.063 369.192C447.124 369.9 448.675 370.561 450.713 371.177L450.744 371.075C448.71 370.46 447.17 369.803 446.122 369.104L446.063 369.192ZM450.713 371.177C454.46 372.303 457.182 373.699 458.887 375.36L458.962 375.284C457.239 373.606 454.498 372.204 450.744 371.075L450.713 371.177ZM458.887 375.36C460.59 377.02 461.442 379.086 461.442 381.563H461.549C461.549 379.059 460.686 376.965 458.962 375.284L458.887 375.36ZM461.442 381.563C461.442 384.315 460.402 386.475 458.321 388.046L458.385 388.131C460.494 386.538 461.549 384.347 461.549 381.563H461.442ZM458.321 388.046C456.239 389.604 453.431 390.386 449.894 390.386V390.493C453.446 390.493 456.278 389.707 458.385 388.131L458.321 388.046ZM449.894 390.386C447.439 390.386 445.206 389.941 443.192 389.05L443.149 389.148C445.178 390.045 447.426 390.493 449.894 390.493V390.386ZM443.192 389.051C441.178 388.146 439.641 386.914 438.578 385.356L438.49 385.416C439.566 386.993 441.119 388.236 443.148 389.148L443.192 389.051ZM438.578 385.356C437.53 383.798 437.005 381.992 437.005 379.937H436.899C436.899 382.012 437.429 383.839 438.49 385.416L438.578 385.356ZM436.952 379.99H443.566V379.883H436.952V379.99ZM443.512 379.937C443.512 381.713 444.043 383.054 445.113 383.949C446.182 384.843 447.778 385.285 449.894 385.285V385.179C447.79 385.179 446.223 384.739 445.182 383.867C444.143 382.998 443.619 381.691 443.619 379.937H443.512ZM449.894 385.285C451.467 385.285 452.703 384.969 453.594 384.33L453.532 384.244C452.666 384.865 451.455 385.179 449.894 385.179V385.285ZM453.595 384.33C454.488 383.675 454.935 382.765 454.935 381.607H454.828C454.828 382.733 454.396 383.61 453.532 384.244L453.595 384.33Z" fill="#6E1731"/>
</svg>
