<svg width="1500" height="3186" viewBox="0 0 1500 3186" fill="none" xmlns="http://www.w3.org/2000/svg">
<g filter="url(#filter0_ii)">
<path d="M370.624 430.726C248.554 536.055 151.551 754.301 -1 754.301L-0.499833 3186H1500V17.4919C1429.48 -87.1096 1356.45 310.606 1278.93 334.17C1208.07 280.337 1180.19 200.257 1133.38 200.257C1074.86 200.257 842.781 495.671 797.766 522.683C752.751 549.695 507.169 312.905 370.624 430.726Z" fill="#FFF7E3"/>
</g>
<path d="M229.257 491.897L300.758 481.916" stroke="#6E1731" stroke-width="0.359261"/>
<path d="M268.573 522.175L267.051 449.997" stroke="#6E1731" stroke-width="0.359261"/>
<path d="M289.614 460.077L246.963 510.908" stroke="#6E1731" stroke-width="0.331482"/>
<path d="M294.418 507.757L238.639 461.924" stroke="#6E1731" stroke-width="0.359261"/>
<path d="M180.46 634.495L178.937 562.317" stroke="#6E1731" stroke-width="0.359261"/>
<path d="M201.501 572.398L158.849 623.228" stroke="#6E1731" stroke-width="0.331482"/>
<path d="M206.304 620.078L150.526 574.244" stroke="#6E1731" stroke-width="0.359261"/>
<path d="M208.605 621.642C222.641 604.914 220.817 580.274 204.53 566.608C188.243 552.941 163.661 555.423 149.624 572.151C135.588 588.879 137.412 613.519 153.699 627.185C169.986 640.851 194.568 638.37 208.605 621.642Z" stroke="#6E1731" stroke-width="9.07"/>
<path d="M141.144 604.217L212.645 594.237" stroke="#6E1731" stroke-width="0.359261"/>
<path d="M211.861 557.555L177.792 598.157C176.893 599.229 177.032 600.826 178.104 601.725C179.175 602.624 180.773 602.484 181.672 601.413L215.741 560.811C216.64 559.739 216.5 558.142 215.429 557.243C214.357 556.344 212.76 556.484 211.861 557.555Z" fill="#FFCB04"/>
<path d="M172.078 540.901L175.574 600.226C175.667 601.811 176.753 602.298 178 601.315C179.246 600.333 180.181 598.251 180.087 596.667L176.592 537.341C176.498 535.757 175.412 535.269 174.166 536.252C172.919 537.235 171.985 539.316 172.078 540.901Z" fill="#FFCB04"/>
<path d="M214.492 555.55L136.611 512.156C135.488 511.53 134.338 512.037 134.041 513.287C133.745 514.538 134.415 516.059 135.538 516.684L213.419 560.079C214.541 560.704 215.692 560.198 215.988 558.947C216.284 557.696 215.614 556.176 214.492 555.55Z" fill="#FFCB04"/>
<path d="M216.233 556.982L205.292 457.046C205.138 455.643 203.89 454.722 202.504 454.99C201.119 455.258 200.12 456.613 200.273 458.016L211.215 557.952C211.368 559.355 212.616 560.275 214.002 560.007C215.388 559.74 216.387 558.385 216.233 556.982Z" fill="#FFCB04"/>
<path d="M297.046 509.623C311.082 492.895 309.257 468.255 292.97 454.589C276.683 440.922 252.101 443.404 238.065 460.132C224.029 476.86 225.853 501.5 242.14 515.166C258.427 528.832 283.009 526.351 297.046 509.623Z" stroke="#6E1731" stroke-width="9.07"/>
<path d="M267.13 481.834L197.098 451.555C195.96 451.063 194.798 451.64 194.502 452.845C194.207 454.049 194.891 455.425 196.029 455.917L266.061 486.195C267.2 486.687 268.362 486.11 268.657 484.905C268.952 483.701 268.269 482.326 267.13 481.834Z" fill="#FFCB04"/>
<path d="M198.474 459.882L149.16 518.653C148.261 519.724 148.401 521.322 149.472 522.221C150.544 523.12 152.141 522.98 153.04 521.909L202.354 463.138C203.253 462.067 203.114 460.469 202.042 459.57C200.971 458.671 199.373 458.811 198.474 459.882Z" fill="#FFCB04"/>
<path d="M200.489 443.171C204.497 443.248 207.86 443.821 210.305 444.845C212.75 445.869 214.206 447.315 214.555 449.063C214.904 450.811 214.135 452.813 212.312 454.905C210.489 456.997 207.664 459.119 204.066 461.098" stroke="#6E1731" stroke-width="4.38"/>
<path d="M198.396 442.012L192.058 449.566C191.159 450.638 191.298 452.235 192.37 453.134C193.441 454.033 195.039 453.894 195.938 452.822L202.276 445.268C203.175 444.197 203.036 442.599 201.964 441.7C200.893 440.801 199.295 440.941 198.396 442.012Z" fill="#6E1731"/>
<path d="M139.727 500.257L126.096 516.502C125.197 517.573 125.336 519.171 126.408 520.07C127.479 520.969 129.077 520.829 129.976 519.758L143.607 503.512C144.506 502.441 144.366 500.843 143.295 499.944C142.224 499.045 140.626 499.185 139.727 500.257Z" fill="#6E1731"/>
<defs>
<filter id="filter0_ii" x="-11" y="-10" width="1521" height="3206" filterUnits="userSpaceOnUse" color-interpolation-filters="sRGB">
<feFlood flood-opacity="0" result="BackgroundImageFix"/>
<feBlend mode="normal" in="SourceGraphic" in2="BackgroundImageFix" result="shape"/>
<feColorMatrix in="SourceAlpha" type="matrix" values="0 0 0 0 0 0 0 0 0 0 0 0 0 0 0 0 0 0 127 0" result="hardAlpha"/>
<feOffset dx="10" dy="10"/>
<feGaussianBlur stdDeviation="5"/>
<feComposite in2="hardAlpha" operator="arithmetic" k2="-1" k3="1"/>
<feColorMatrix type="matrix" values="0 0 0 0 1 0 0 0 0 1 0 0 0 0 1 0 0 0 0.9 0"/>
<feBlend mode="normal" in2="shape" result="effect1_innerShadow"/>
<feColorMatrix in="SourceAlpha" type="matrix" values="0 0 0 0 0 0 0 0 0 0 0 0 0 0 0 0 0 0 127 0" result="hardAlpha"/>
<feOffset dx="-10" dy="-10"/>
<feGaussianBlur stdDeviation="10"/>
<feComposite in2="hardAlpha" operator="arithmetic" k2="-1" k3="1"/>
<feColorMatrix type="matrix" values="0 0 0 0 0 0 0 0 0 0 0 0 0 0 0 0 0 0 0.3 0"/>
<feBlend mode="normal" in2="effect1_innerShadow" result="effect2_innerShadow"/>
</filter>
</defs>
</svg>
