<svg width="130" height="130" viewBox="0 0 130 130" fill="none" xmlns="http://www.w3.org/2000/svg">
<path d="M113.75 54.1667C113.75 92.0833 65 124.583 65 124.583C65 124.583 16.25 92.0833 16.25 54.1667C16.25 41.2374 21.3861 28.8376 30.5285 19.6952C39.6709 10.5528 52.0707 5.41669 65 5.41669C77.9293 5.41669 90.329 10.5528 99.4715 19.6952C108.614 28.8376 113.75 41.2374 113.75 54.1667Z" fill="#FF6133" stroke="#6E1731" stroke-width="2" stroke-linecap="round" stroke-linejoin="round"/>
<path d="M65 70.4166C73.9746 70.4166 81.25 63.1413 81.25 54.1666C81.25 45.192 73.9746 37.9166 65 37.9166C56.0254 37.9166 48.75 45.192 48.75 54.1666C48.75 63.1413 56.0254 70.4166 65 70.4166Z" fill="#FFCB00" stroke="#6E1731" stroke-width="2" stroke-linecap="round" stroke-linejoin="round"/>
</svg>
