<svg width="130" height="130" viewBox="0 0 130 130" fill="none" xmlns="http://www.w3.org/2000/svg">
<path d="M91.6544 85.1034L92.111 84.5L91.6544 83.8966C85.5379 75.8127 75.9365 70.5 65 70.5C54.0635 70.5 44.462 75.8127 38.3455 83.8966L37.889 84.5L38.3455 85.1034C44.462 93.1873 54.0635 98.5 65 98.5C75.9365 98.5 85.5379 93.1873 91.6544 85.1034ZM65 14C93.1192 14 116 36.8808 116 65C116 93.1192 93.1192 116 65 116C36.8808 116 14 93.1192 14 65C14 36.8808 36.8808 14 65 14ZM65 31.5C57.2714 31.5 51 37.7785 51 45.5C51 53.2215 57.2714 59.5 65 59.5C72.7286 59.5 79 53.2215 79 45.5C79 37.7785 72.7286 31.5 65 31.5Z" fill="#FE6537" stroke="#6E1731" stroke-width="2"/>
</svg>
