<svg width="130" height="130" viewBox="0 0 130 130" fill="none" xmlns="http://www.w3.org/2000/svg">
<path d="M14.0613 57.2518V116.813H6.0968V56.2966L14.0613 57.2518Z" fill="#6E1731"/>
<path d="M123.901 56.2994V116.813H115.936V57.2518L123.901 56.2994Z" fill="#6E1731"/>
<path d="M130 13.1871V55.4717C111.919 58.0453 93.7221 59.5387 75.5087 59.9554C50.2887 60.5282 25.0344 59.0345 0 55.4714V13.1871C6.1552 14.0626 12.3236 14.8134 18.4999 15.4395H18.5024C55.6001 19.1989 93.0376 18.4481 130 13.1871Z" fill="#FE673A"/>
<path d="M6.0968 56.2966L14.0613 57.2518V66.4048C11.4057 66.1103 8.74987 65.7919 6.0968 65.4497V56.2966Z" fill="#6E1731"/>
<path d="M123.901 56.2994V65.4499C121.248 65.7922 118.592 66.1106 115.936 66.4051V57.252L123.901 56.2994Z" fill="#6E1731"/>
<path d="M75.5087 59.9551C50.2887 60.5282 25.0344 59.0345 0 55.4714V13.1871C6.1552 14.0626 12.3236 14.8134 18.4999 15.4395C18.4999 15.4395 35.0152 57.2066 75.4744 59.9526C75.4848 59.9526 75.4983 59.9551 75.5087 59.9551Z" fill="#D0522D"/>
<path d="M51.953 32.1854C51.9251 32.1854 51.8974 32.1849 51.8695 32.1839C47.6221 32.008 43.3228 31.7429 39.0901 31.3965C37.995 31.3069 37.1797 30.3461 37.2694 29.251C37.359 28.1559 38.3195 27.3414 39.4149 27.4303C43.5942 27.7728 47.84 28.0343 52.034 28.208C53.1322 28.2534 53.9853 29.1807 53.9401 30.2783C53.8957 31.3478 53.0141 32.1854 51.953 32.1854Z" fill="#6E1731"/>
<path d="M45.5992 49.0623C44.5003 49.0623 43.6094 48.1714 43.6094 47.0724V29.8688C43.6094 28.7699 44.5003 27.8789 45.5992 27.8789C46.6981 27.8789 47.5891 28.7699 47.5891 29.8688V47.0724C47.5891 48.1714 46.6981 49.0623 45.5992 49.0623Z" fill="#6E1731"/>
<path d="M94.6792 31.0561C93.6645 31.0561 92.798 30.2837 92.7005 29.2533C92.5969 28.1592 93.4002 27.1886 94.4943 27.0852C98.6769 26.6899 102.907 26.2037 107.069 25.64C108.158 25.4914 109.161 26.2557 109.308 27.345C109.456 28.4337 108.692 29.4364 107.603 29.5836C103.388 30.1544 99.104 30.6468 94.8686 31.0474C94.8048 31.0528 94.7416 31.0561 94.6792 31.0561Z" fill="#6E1731"/>
<path d="M101.014 47.5965C99.9152 47.5965 99.0245 46.7055 99.0245 45.6066V28.4029C99.0245 27.304 99.9152 26.4131 101.014 26.4131C102.113 26.4131 103.004 27.304 103.004 28.4029V45.6066C103.004 46.7055 102.113 47.5965 101.014 47.5965Z" fill="#6E1731"/>
<path d="M76.7137 41.6348C76.1996 41.6348 75.7045 41.4357 75.333 41.078C74.9438 40.7029 74.7239 40.1857 74.7239 39.6452V30.2484C74.7239 29.1781 75.5701 28.2996 76.6399 28.2598C78.2841 28.1988 79.9564 28.1232 81.6096 28.0356C83.3549 27.9404 84.9888 28.5368 86.222 29.706C87.442 30.8633 88.1141 32.4457 88.1141 34.1613V34.7504C88.1141 38.2368 85.2907 41.2227 81.8203 41.4063C80.1559 41.4946 78.4629 41.5711 76.7876 41.633C76.763 41.6343 76.7386 41.6348 76.7137 41.6348ZM78.7036 32.1595V37.5728C79.6761 37.5304 80.6478 37.4834 81.6098 37.4321H81.6101C82.9786 37.36 84.1347 36.1316 84.1347 34.7504V34.1613C84.1347 33.5484 83.9033 32.9916 83.4836 32.5934C83.051 32.1831 82.4566 31.9744 81.8206 32.0095C80.7851 32.0643 79.7423 32.1146 78.7036 32.1595Z" fill="#6E1731"/>
<path d="M76.7137 49.4417C75.6146 49.4417 74.7239 48.5507 74.7239 47.4518V39.6449C74.7239 38.575 75.5699 37.6965 76.6396 37.6563C77.1672 37.6368 77.6953 37.6157 78.2227 37.5934C80.8941 37.4801 83.3968 38.4079 85.2676 40.202C87.1033 41.9623 88.1141 44.3628 88.1141 46.961C88.1141 48.0599 87.2234 48.9509 86.1243 48.9509C85.0251 48.9509 84.1344 48.0599 84.1344 46.961C84.1344 45.4576 83.5585 44.0769 82.5132 43.0742C81.5042 42.1068 80.1613 41.5769 78.7036 41.564V47.4513C78.7036 48.5507 77.8126 49.4417 76.7137 49.4417Z" fill="#6E1731"/>
<path d="M67.8401 49.6465C66.741 49.6465 65.8503 48.7556 65.8503 47.6567V35.021C65.8503 33.6121 64.6836 32.4589 63.2495 32.4507C62.5427 32.4571 61.8921 32.7115 61.4054 33.1957C60.9321 33.6664 60.6716 34.2964 60.6716 34.9703V47.6059C60.6716 48.7048 59.7807 49.5958 58.6818 49.5958C57.5828 49.5958 56.6919 48.7048 56.6919 47.6059V34.9703C56.6919 33.2295 57.3691 31.5974 58.5987 30.3743C59.8419 29.1378 61.495 28.469 63.2714 28.471C66.888 28.4918 69.83 31.4298 69.83 35.0208V47.6564C69.8298 48.7556 68.9391 49.6465 67.8401 49.6465Z" fill="#6E1731"/>
<path d="M65.0091 41.698C62.8857 41.698 60.7539 41.6767 58.6417 41.6345C57.543 41.6124 56.6701 40.7042 56.6922 39.6053C56.7143 38.5064 57.6258 37.6409 58.7214 37.6558C61.7421 37.7165 64.804 37.733 67.8219 37.7059C67.8277 37.7059 67.8341 37.7059 67.8399 37.7059C68.9307 37.7059 69.8196 38.5849 69.8295 39.6777C69.8394 40.7766 68.9566 41.6754 67.8574 41.6853C66.9119 41.6937 65.9613 41.698 65.0091 41.698Z" fill="#6E1731"/>
<path d="M27.9982 47.4513C27.7489 47.4513 27.4968 47.4361 27.2426 47.4056C25.6339 47.2126 24.0028 47.0047 22.3953 46.7868C21.3065 46.6393 20.5433 45.6371 20.6903 44.5481C20.8378 43.4594 21.8392 42.6964 22.929 42.8431C24.5164 43.058 26.1272 43.2636 27.7164 43.454C28.2836 43.5226 28.8052 43.3738 29.1855 43.0366C29.5697 42.6956 29.7812 42.1904 29.7812 41.613C29.7812 40.2553 28.6185 38.9685 27.2424 38.8035L26.7079 38.739C23.3233 38.3287 20.6723 35.3298 20.6723 31.9122C20.6723 30.1984 21.3484 28.6554 22.5766 27.5671C23.8182 26.467 25.4549 25.9762 27.1868 26.1864C28.7739 26.3794 30.3867 26.5627 31.9803 26.7313C33.0731 26.8473 33.8653 27.8266 33.7495 28.9194C33.6337 30.0125 32.6549 30.8042 31.5613 30.6887C29.947 30.5175 28.3136 30.3322 26.7071 30.1367C26.1229 30.0653 25.593 30.2108 25.2159 30.5452C24.847 30.872 24.6523 31.3445 24.6523 31.9117C24.6523 33.2803 25.8367 34.6242 27.1873 34.7882L27.7169 34.852C31.1066 35.2592 33.7614 38.2287 33.7614 41.6127C33.7614 43.3192 33.0566 44.9229 31.8271 46.0134C30.7679 46.9536 29.4295 47.4513 27.9982 47.4513Z" fill="#6E1731"/>
</svg>
