<svg width="246" height="261" viewBox="0 0 246 261" fill="none" xmlns="http://www.w3.org/2000/svg">
<path d="M146.257 93.8966L217.758 83.9164" stroke="#6E1731" stroke-width="0.359261"/>
<path d="M185.573 124.175L184.051 51.997" stroke="#6E1731" stroke-width="0.359261"/>
<path d="M206.614 62.0775L163.963 112.908" stroke="#6E1731" stroke-width="0.331482"/>
<path d="M211.418 109.757L155.639 63.9238" stroke="#6E1731" stroke-width="0.359261"/>
<path d="M97.4598 236.495L95.9375 164.317" stroke="#6E1731" stroke-width="0.359261"/>
<path d="M118.501 174.398L75.8495 225.228" stroke="#6E1731" stroke-width="0.331482"/>
<path d="M123.304 222.078L67.5259 176.244" stroke="#6E1731" stroke-width="0.359261"/>
<path d="M125.605 223.642C139.641 206.914 137.817 182.274 121.53 168.608C105.243 154.941 80.6606 157.423 66.6241 174.151C52.5877 190.879 54.4122 215.519 70.6992 229.185C86.9862 242.851 111.568 240.37 125.605 223.642Z" stroke="#6E1731" stroke-width="9.07"/>
<path d="M58.144 206.217L129.645 196.237" stroke="#6E1731" stroke-width="0.359261"/>
<path d="M128.861 159.555L94.7917 200.157C93.8927 201.229 94.0324 202.826 95.1039 203.725C96.1753 204.624 97.7727 204.484 98.6718 203.413L132.741 162.811C133.64 161.739 133.5 160.142 132.429 159.243C131.357 158.344 129.76 158.484 128.861 159.555Z" fill="#FFCB04"/>
<path d="M89.0781 142.901L92.574 202.226C92.6674 203.811 93.7535 204.298 94.9998 203.315C96.2462 202.333 97.1808 200.251 97.0874 198.667L93.5915 139.341C93.4982 137.757 92.4121 137.269 91.1658 138.252C89.9194 139.235 88.9848 141.316 89.0781 142.901Z" fill="#FFCB04"/>
<path d="M131.492 157.55L53.6105 114.156C52.4878 113.53 51.3376 114.037 51.0413 115.287C50.745 116.538 51.4148 118.059 52.5375 118.684L130.419 162.079C131.541 162.704 132.692 162.198 132.988 160.947C133.284 159.696 132.614 158.176 131.492 157.55Z" fill="#FFCB04"/>
<path d="M133.233 158.982L122.292 59.0456C122.138 57.6426 120.89 56.7224 119.504 56.9904C118.119 57.2583 117.12 58.6129 117.273 60.0159L128.215 159.952C128.368 161.355 129.616 162.275 131.002 162.007C132.388 161.74 133.387 160.385 133.233 158.982Z" fill="#FFCB04"/>
<path d="M214.046 111.623C228.082 94.8947 226.257 70.2551 209.97 56.5887C193.683 42.9223 169.101 45.4041 155.065 62.1321C141.029 78.8601 142.853 103.5 159.14 117.166C175.427 130.832 200.009 128.351 214.046 111.623Z" stroke="#6E1731" stroke-width="9.07"/>
<path d="M184.13 83.8335L114.098 53.5551C112.96 53.063 111.798 53.6404 111.502 54.8449C111.207 56.0493 111.891 57.4246 113.029 57.9167L183.061 88.1951C184.2 88.6872 185.362 88.1098 185.657 86.9054C185.952 85.701 185.269 84.3256 184.13 83.8335Z" fill="#FFCB04"/>
<path d="M115.474 61.8824L66.1601 120.653C65.2611 121.724 65.4009 123.322 66.4723 124.221C67.5437 125.12 69.1411 124.98 70.0402 123.909L119.354 65.1382C120.253 64.0667 120.114 62.4693 119.042 61.5703C117.971 60.6712 116.373 60.811 115.474 61.8824Z" fill="#FFCB04"/>
<path d="M117.489 45.171C121.497 45.2476 124.86 45.8214 127.305 46.8454C129.75 47.8694 131.206 49.3147 131.555 51.063C131.904 52.8113 131.135 54.8131 129.312 56.9048C127.489 58.9965 124.664 61.1188 121.066 63.0982" stroke="#6E1731" stroke-width="4.38"/>
<path d="M115.396 44.0124L109.058 51.5664C108.159 52.6379 108.298 54.2353 109.37 55.1343C110.441 56.0334 112.039 55.8936 112.938 54.8222L119.276 47.2681C120.175 46.1967 120.036 44.5993 118.964 43.7002C117.893 42.8012 116.295 42.941 115.396 44.0124Z" fill="#6E1731"/>
<path d="M56.7271 102.257L43.0958 118.502C42.1967 119.573 42.3365 121.171 43.4079 122.07C44.4793 122.969 46.0767 122.829 46.9757 121.758L60.6071 105.512C61.5062 104.441 61.3664 102.843 60.295 101.944C59.2236 101.045 57.6262 101.185 56.7271 102.257Z" fill="#6E1731"/>
</svg>
